<svg width="416" height="129" viewBox="0 0 416 129" fill="none" xmlns="http://www.w3.org/2000/svg">
<path d="M2 110.133V89.3461H49.8101V4.81219C49.8101 4.81219 76.8313 -1.51427 92.0771 4.81219C101.725 8.81555 108.115 12.3404 113.557 20.7489C127.009 41.5359 121.145 61.0221 104.549 74.1023C89.2479 86.1624 54.6604 74.1023 54.6604 74.1023" stroke="#1E88E5" stroke-width="4" stroke-linecap="round"/>
<path d="M69.9043 78.2597L101.245 125.377L124.643 101.818" stroke="#1E88E5" stroke-width="4" stroke-linecap="round"/>
<path d="M164.832 40.0715C182.039 40.0715 196.784 58.223 196.784 81.7238C196.784 105.225 182.04 123.377 164.832 123.377C147.624 123.377 132.879 105.225 132.879 81.7238C132.88 58.2229 147.624 40.0715 164.832 40.0715Z" stroke="#1E88E5" stroke-width="4"/>
<path d="M209.716 40.8431C209.716 40.8431 206.945 78.2597 209.716 96.2751C212.487 114.291 222.187 120.527 226.345 122.605C230.503 124.684 248.517 128.149 257.526 122.605C266.534 117.062 271.384 110.133 274.156 96.2751C276.927 82.4171 274.156 40.8431 274.156 40.8431" stroke="#1E88E5" stroke-width="4" stroke-linecap="round"/>
<path d="M286.397 2.04065C286.397 2.04065 285.705 101.125 286.397 105.283C287.09 109.44 295.405 117.062 298.177 119.141C300.948 121.22 307.087 124.78 313.42 124.684C319.501 124.592 323.059 122.724 327.971 119.141C333.437 115.154 335.944 111.6 338.365 105.283C339.846 101.418 340.324 99.0269 340.443 94.8893" stroke="#1E88E5" stroke-width="4" stroke-linecap="round"/>
<path d="M288.168 42.2289H341.521" stroke="#1E88E5" stroke-width="4" stroke-linecap="round"/>
<path d="M413.997 97.3911C413.997 97.3911 409.979 109.789 404.296 115.407C399.212 120.432 395.393 123.131 388.36 124.414C381.921 125.589 377.782 124.827 371.73 122.336C367.219 120.478 364.831 118.81 361.336 115.407C355.612 109.832 353.817 105.078 351.636 97.3911C349.927 91.3696 349.928 81.4544 349.928 81.4544M349.928 81.4544C349.928 81.4544 349.721 77.256 349.928 75.9112C351.636 64.8248 359.951 53.0455 359.951 53.0455C359.951 53.0455 364.801 46.0027 371.73 44.0378C376.676 42.6351 383.323 41.6175 388.36 42.652C395.236 44.0644 399.121 46.2241 404.296 50.9668C407.761 54.1415 410.806 58.6962 412.611 65.5177C414.134 71.2727 413.997 81.4544 413.997 81.4544H349.928Z" stroke="#1E88E5" stroke-width="4" stroke-linecap="round"/>
</svg>
