<svg width="242" height="78" viewBox="0 0 242 78" fill="none" xmlns="http://www.w3.org/2000/svg">
<path d="M2.5 64.7031V52.7455H30.0024V4.11799C30.0024 4.11799 45.5462 0.478743 54.3162 4.11799C59.8658 6.4209 63.5421 8.44854 66.6723 13.2855C74.4106 25.2431 71.0372 36.4523 61.4907 43.9766C52.6887 50.9141 32.7925 43.9766 32.7925 43.9766" stroke="#1E88E5" stroke-width="5" stroke-linecap="round"/>
<path d="M41.5614 46.3681L59.5898 73.472L73.0497 59.92" stroke="#1E88E5" stroke-width="5" stroke-linecap="round"/>
<path d="M96.1673 25.7502C105.025 25.7502 113.199 35.2527 113.199 48.3615C113.198 61.4701 105.025 70.9719 96.1673 70.9719C87.31 70.9715 79.1372 61.4699 79.137 48.3615C79.137 35.253 87.3099 25.7505 96.1673 25.7502Z" stroke="#1E88E5" stroke-width="5"/>
<path d="M121.987 24.8445C121.987 24.8445 120.393 46.3682 121.987 56.7314C123.581 67.0947 129.161 70.6819 131.553 71.8777C133.945 73.0735 144.307 75.0664 149.489 71.8777C154.671 68.689 157.461 64.7031 159.056 56.7314C160.65 48.7597 159.056 24.8445 159.056 24.8445" stroke="#1E88E5" stroke-width="5" stroke-linecap="round"/>
<path d="M166.097 2.52368C166.097 2.52368 165.699 59.5215 166.097 61.913C166.496 64.3045 171.279 68.689 172.873 69.8847C174.468 71.0805 177.999 73.1288 181.642 73.0734C185.14 73.0202 187.187 71.9462 190.013 69.8847C193.156 67.5914 194.599 65.5469 195.991 61.913C196.843 59.6895 197.118 58.3143 197.187 55.9342" stroke="#1E88E5" stroke-width="5" stroke-linecap="round"/>
<path d="M167.116 25.6417H197.807" stroke="#1E88E5" stroke-width="5" stroke-linecap="round"/>
<path d="M239.498 57.3733C239.498 57.3733 237.187 64.5052 233.918 67.7365C230.993 70.6275 228.796 72.1801 224.751 72.9182C221.047 73.5939 218.666 73.1559 215.184 71.7224C212.59 70.654 211.216 69.6944 209.206 67.7365C205.913 64.5296 204.88 61.7952 203.625 57.3733C202.642 53.9095 202.643 48.2058 202.643 48.2058M202.643 48.2058C202.643 48.2058 202.524 45.7907 202.643 45.0171C203.625 38.6398 208.408 31.8638 208.408 31.8638C208.408 31.8638 211.199 27.8125 215.184 26.6822C218.03 25.8753 221.853 25.2899 224.751 25.885C228.706 26.6975 230.941 27.9399 233.918 30.668C235.911 32.4943 237.663 35.1143 238.701 39.0383C239.577 42.3489 239.498 48.2058 239.498 48.2058H202.643Z" stroke="#1E88E5" stroke-width="5" stroke-linecap="round"/>
</svg>
