<svg width="416" height="129" viewBox="0 0 416 129" fill="none" xmlns="http://www.w3.org/2000/svg">
<path d="M2 110.133V89.346H49.8101V4.81213C49.8101 4.81213 76.8313 -1.51434 92.0771 4.81213C101.725 8.81549 108.115 12.3403 113.557 20.7488C127.009 41.5359 121.145 61.022 104.549 74.1022C89.2479 86.1623 54.6604 74.1022 54.6604 74.1022" stroke="#0E3A99" stroke-width="4" stroke-linecap="round"/>
<path d="M69.9043 78.2596L101.245 125.377L124.643 101.818" stroke="#0E3A99" stroke-width="4" stroke-linecap="round"/>
<path d="M164.832 40.0714C182.039 40.0714 196.784 58.2229 196.784 81.7238C196.784 105.225 182.04 123.377 164.832 123.377C147.624 123.377 132.879 105.225 132.879 81.7238C132.88 58.2229 147.624 40.0714 164.832 40.0714Z" stroke="#0E3A99" stroke-width="4"/>
<path d="M209.716 40.843C209.716 40.843 206.945 78.2597 209.716 96.2751C212.487 114.29 222.187 120.527 226.345 122.605C230.503 124.684 248.517 128.149 257.526 122.605C266.534 117.062 271.384 110.133 274.156 96.2751C276.927 82.4171 274.156 40.843 274.156 40.843" stroke="#0E3A99" stroke-width="4" stroke-linecap="round"/>
<path d="M286.397 2.04065C286.397 2.04065 285.705 101.125 286.397 105.283C287.09 109.44 295.405 117.062 298.177 119.141C300.948 121.22 307.087 124.78 313.42 124.684C319.501 124.592 323.059 122.724 327.971 119.141C333.437 115.154 335.944 111.6 338.365 105.283C339.846 101.418 340.324 99.0269 340.443 94.8893" stroke="#0E3A99" stroke-width="4" stroke-linecap="round"/>
<path d="M288.168 42.2289H341.521" stroke="#0E3A99" stroke-width="4" stroke-linecap="round"/>
<path d="M413.997 97.3911C413.997 97.3911 409.979 109.789 404.296 115.406C399.212 120.432 395.393 123.131 388.36 124.414C381.921 125.589 377.782 124.827 371.73 122.335C367.219 120.478 364.831 118.81 361.336 115.406C355.612 109.831 353.817 105.078 351.636 97.3911C349.927 91.3695 349.928 81.4543 349.928 81.4543M349.928 81.4543C349.928 81.4543 349.721 77.256 349.928 75.9111C351.636 64.8247 359.951 53.0454 359.951 53.0454C359.951 53.0454 364.801 46.0026 371.73 44.0377C376.676 42.635 383.323 41.6174 388.36 42.6519C395.236 44.0643 399.121 46.2241 404.296 50.9667C407.761 54.1414 410.806 58.6961 412.611 65.5176C414.134 71.2726 413.997 81.4543 413.997 81.4543H349.928Z" stroke="#0E3A99" stroke-width="4" stroke-linecap="round"/>
</svg>
