<svg width="22" height="22" viewBox="0 0 22 22" fill="none" xmlns="http://www.w3.org/2000/svg">
<path fill-rule="evenodd" clip-rule="evenodd" d="M15.0355 0.75H18.3021C19.6536 0.75 20.75 1.8559 20.75 3.22018V6.5141C20.75 7.87735 19.6536 8.98429 18.3021 8.98429H15.0355C13.683 8.98429 12.5866 7.87735 12.5866 6.5141V3.22018C12.5866 1.8559 13.683 0.75 15.0355 0.75ZM3.19892 0.75H6.46449C7.81703 0.75 8.91341 1.8559 8.91341 3.22018V6.5141C8.91341 7.87735 7.81703 8.98429 6.46449 8.98429H3.19892C1.84638 8.98429 0.75 7.87735 0.75 6.5141V3.22018C0.75 1.8559 1.84638 0.75 3.19892 0.75ZM3.19892 12.5157H6.46449C7.81703 12.5157 8.91341 13.6216 8.91341 14.9869V18.2798C8.91341 19.6441 7.81703 20.75 6.46449 20.75H3.19892C1.84638 20.75 0.75 19.6441 0.75 18.2798V14.9869C0.75 13.6216 1.84638 12.5157 3.19892 12.5157ZM15.0355 12.5157H18.3021C19.6536 12.5157 20.75 13.6216 20.75 14.9869V18.2798C20.75 19.6441 19.6536 20.75 18.3021 20.75H15.0355C13.683 20.75 12.5866 19.6441 12.5866 18.2798V14.9869C12.5866 13.6216 13.683 12.5157 15.0355 12.5157Z" stroke="white" stroke-width="1.5" stroke-linecap="round" stroke-linejoin="round"/>
</svg>
