<svg width="21" height="20" viewBox="0 0 21 20" fill="none" xmlns="http://www.w3.org/2000/svg">
<path d="M13.9859 4.80302C15.0512 5.14332 15.8081 6.09972 15.9027 7.22501M10.0076 18.6038C7.83698 17.2679 5.81769 15.6956 3.98587 13.9152C2.69802 12.6329 1.71759 11.0698 1.11968 9.34539C0.0437258 6.00031 1.30051 2.17083 4.8177 1.03752C6.66619 0.442435 8.68503 0.782552 10.2427 1.95148C11.8009 0.783976 13.819 0.443978 15.6676 1.03752C19.1848 2.17083 20.4507 6.00031 19.3747 9.34539C18.7768 11.0698 17.7964 12.6329 16.5085 13.9152C14.6767 15.6956 12.6574 17.2679 10.4868 18.6038L10.2517 18.75L10.0076 18.6038Z" stroke="white" stroke-width="1.5" stroke-linecap="round" stroke-linejoin="round"/>
</svg>
