<svg width="21" height="20" viewBox="0 0 21 20" fill="none" xmlns="http://www.w3.org/2000/svg">
<path fill-rule="evenodd" clip-rule="evenodd" d="M10.0076 18.6038C7.83698 17.2679 5.81769 15.6957 3.98587 13.9152C2.69802 12.633 1.71759 11.0698 1.11968 9.3454C0.0437258 6.00032 1.30051 2.17084 4.8177 1.03754C6.66619 0.44245 8.68503 0.782568 10.2427 1.95149C11.8009 0.783991 13.819 0.443993 15.6676 1.03754C19.1848 2.17084 20.4507 6.00032 19.3747 9.3454C18.7768 11.0698 17.7964 12.633 16.5085 13.9152C14.6767 15.6957 12.6574 17.2679 10.4868 18.6038L10.2517 18.75L10.0076 18.6038ZM13.9859 4.80304C15.0512 5.14334 15.8081 6.09974 15.9027 7.22502Z" fill="#0E3A99"/>
<path d="M13.9859 4.80304C15.0512 5.14334 15.8081 6.09974 15.9027 7.22502M10.0076 18.6038C7.83698 17.2679 5.81769 15.6957 3.98587 13.9152C2.69802 12.633 1.71759 11.0698 1.11968 9.3454C0.0437258 6.00032 1.30051 2.17084 4.8177 1.03754C6.66619 0.44245 8.68503 0.782568 10.2427 1.95149C11.8009 0.783991 13.819 0.443993 15.6676 1.03754C19.1848 2.17084 20.4507 6.00032 19.3747 9.3454C18.7768 11.0698 17.7964 12.633 16.5085 13.9152C14.6767 15.6957 12.6574 17.2679 10.4868 18.6038L10.2517 18.75L10.0076 18.6038Z" stroke="#0E3A99" stroke-width="1.5" stroke-linecap="round" stroke-linejoin="round"/>
</svg>
