<svg width="28" height="28" viewBox="0 0 28 28" fill="none" xmlns="http://www.w3.org/2000/svg">
<path d="M7 11.6667V9.33333C7 5.47166 8.16667 2.33333 14 2.33333C19.8333 2.33333 21 5.47166 21 9.33333V11.6667" stroke="#1E1E1E" stroke-width="1.5" stroke-linecap="round" stroke-linejoin="round"/>
<path d="M14 21.5833C15.6108 21.5833 16.9167 20.2775 16.9167 18.6667C16.9167 17.0558 15.6108 15.75 14 15.75C12.3892 15.75 11.0833 17.0558 11.0833 18.6667C11.0833 20.2775 12.3892 21.5833 14 21.5833Z" stroke="#1E1E1E" stroke-width="1.5" stroke-linecap="round" stroke-linejoin="round"/>
<path d="M19.8333 25.6667H8.16668C3.50001 25.6667 2.33334 24.5 2.33334 19.8333V17.5C2.33334 12.8333 3.50001 11.6667 8.16668 11.6667H19.8333C24.5 11.6667 25.6667 12.8333 25.6667 17.5V19.8333C25.6667 24.5 24.5 25.6667 19.8333 25.6667Z" stroke="#1E1E1E" stroke-width="1.5" stroke-linecap="round" stroke-linejoin="round"/>
</svg>
