<svg width="28" height="22" viewBox="0 0 28 22" fill="none" xmlns="http://www.w3.org/2000/svg">
<path fill-rule="evenodd" clip-rule="evenodd" d="M6.08515 1.06758L10.6916 4.67405C11.2625 5.12128 11.2629 5.82206 10.6925 6.26965L8.46574 8.01716C9.86394 11.1712 12.9908 13.6945 16.9538 14.8876L17.3975 15.0147L19.5082 13.3583C20.1011 12.893 21.0894 12.8729 21.7157 13.3133L26.3221 16.9198C26.893 17.367 26.8934 18.0678 26.3231 18.5154L25.1775 19.4143C23.0854 21.0562 19.8992 21.5189 17.1009 20.5873C13.1452 19.2705 9.95336 17.6609 7.52529 15.7586C5.09723 13.8564 3.04182 11.355 1.35905 8.25443C0.216208 6.14874 0.711899 3.76172 2.60439 2.12152L2.84821 1.92046L3.87769 1.11255C4.47055 0.647293 5.45886 0.627159 6.08515 1.06758Z" stroke="#1E1E1E" stroke-width="1.5" stroke-linecap="round" stroke-linejoin="round"/>
</svg>
